<?xml version="1.0" encoding="UTF-8"?>
<svg xmlns="http://www.w3.org/2000/svg" id="Layer_1" data-name="Layer 1" viewBox="0 0 24 24">
  <path d="m17.286,10.317c.473.462,1.093.693,1.714.693s1.242-.231,1.714-.693l1.821-1.781c.945-.944,1.465-2.2,1.465-3.536s-.52-2.591-1.465-3.536c-.944-.944-2.2-1.464-3.535-1.464s-2.591.52-3.536,1.464c-1.95,1.95-1.95,5.122.004,7.075l1.817,1.777Zm-1.114-8.146c.756-.755,1.76-1.171,2.829-1.171s2.073.416,2.828,1.171c.756.755,1.172,1.76,1.172,2.829s-.416,2.073-1.168,2.825l-1.817,1.777c-.56.547-1.471.547-2.03,0l-1.813-1.773c-1.56-1.56-1.56-4.098,0-5.657Zm7.829,15.329c0,1.93-1.57,3.5-3.5,3.5h-8c-.276,0-.5-.224-.5-.5s.224-.5.5-.5h8c1.378,0,2.5-1.122,2.5-2.5s-1.122-2.5-2.5-2.5h-12c-1.93,0-3.5-1.57-3.5-3.5s1.57-3.5,3.5-3.5h4c.276,0,.5.224.5.5s-.224.5-.5.5h-4c-1.378,0-2.5,1.122-2.5,2.5s1.122,2.5,2.5,2.5h12c1.93,0,3.5,1.57,3.5,3.5Zm-15.5.5h-1.26l-1.73-2.16c-.282-.518-.824-.84-1.414-.84h-.298c-.346,0-.668.17-.862.456s-.234.648-.108.97l.621,1.574h-.352l-.911-.625c-.567-.57-1.609-.434-2.012.262-.231.399-.233.877.048,1.351l1.096,1.3c.381.452.938.711,1.529.711h.589l-.614,1.579c-.125.321-.083.683.112.967.194.284.516.454.86.454h.32c.59,0,1.132-.322,1.368-.769l1.761-2.231h1.258c.827,0,1.5-.673,1.5-1.5s-.673-1.5-1.5-1.5Zm0,2h-1.5c-.153,0-.297.07-.393.19l-1.958,2.492c-.107.196-.312.318-.536.318l-.36-.059.879-2.26c.06-.154.04-.327-.053-.463s-.248-.218-.413-.218h-1.32c-.295,0-.574-.13-.764-.355l-1.044-1.227c-.072-.126-.023-.237,0-.278.024-.042.097-.14.242-.14.075,0,.145.029.266.139l1.11.771c.083.058.183.089.285.089h1.241c.166,0,.32-.082.414-.219.093-.137.112-.311.052-.465l-.851-2.316h.298c.224,0,.429.122.584.391l1.929,2.421c.095.119.239.188.391.188h1.5c.276,0,.5.224.5.5s-.224.5-.5.5Zm11.501-15.213c0,.552-.448,1-1,1s-1-.448-1-1,.448-1,1-1,1,.448,1,1Z"/>
</svg>
